<svg width="18" height="18" viewBox="0 0 18 18" fill="none" xmlns="http://www.w3.org/2000/svg">
<path d="M9.33144 0.667284C9.7173 0.731779 10.0024 0.87241 10.7601 1.37196C11.1802 1.64895 11.5344 1.87558 11.5474 1.87558C11.5603 1.87558 11.6155 1.7994 11.6701 1.70629C11.8027 1.47993 12.0482 1.26413 12.3158 1.13867L12.5353 1.03573H14.5861H16.6369L16.8565 1.14537C17.277 1.3553 17.5848 1.7621 17.6715 2.22271C17.7252 2.50819 17.7255 9.91418 17.6717 10.1975C17.5796 10.6832 17.2925 11.0653 16.8602 11.2776L16.6369 11.3873L14.5397 11.3983L12.4425 11.4094L11.7142 12.8437C11.0327 14.1856 10.9697 14.3282 10.735 15.0592C10.4161 16.0522 10.307 16.2749 9.98036 16.5998C9.11437 17.4613 7.80222 17.4714 6.94506 16.6231C6.60949 16.291 6.49326 16.0724 6.24855 15.3131C5.90888 14.259 5.89115 13.8455 6.13002 12.5485C6.20412 12.1462 6.26498 11.7708 6.26527 11.7143C6.26633 11.5043 6.24855 11.5024 4.94379 11.5757C3.39716 11.6626 3.0753 11.6609 2.68805 11.5635C2.01524 11.3942 1.34936 10.9629 0.960282 10.4445C0.525311 9.8649 0.323072 9.27547 0.318762 8.57479C0.316418 8.19395 0.361299 7.89421 0.713556 5.93808C0.932146 4.72421 1.14709 3.608 1.19121 3.45761C1.63059 1.95988 2.95114 0.861035 4.54601 0.666046C4.93914 0.617983 9.04282 0.619045 9.33144 0.667284ZM4.50697 1.93076C3.50613 2.10934 2.65991 2.8665 2.3832 3.83103C2.3179 4.05864 1.59763 8.04016 1.55684 8.39901C1.47719 9.09967 1.93715 9.89139 2.6126 10.2163C3.03159 10.4178 3.21008 10.4293 4.60066 10.3444C6.08472 10.2539 6.36136 10.2615 6.66562 10.4009C6.95078 10.5316 7.25761 10.8376 7.38714 11.1205C7.54667 11.469 7.54578 11.7319 7.38205 12.6178C7.14946 13.8762 7.15357 14.0473 7.43782 14.9425C7.61829 15.5108 7.66352 15.6074 7.81503 15.7481C8.00869 15.9279 8.17925 15.9939 8.45329 15.9954C8.66189 15.9964 8.74006 15.9773 8.89142 15.8884C9.18606 15.7152 9.25396 15.5893 9.55271 14.662C9.81951 13.8339 9.85119 13.7625 10.6443 12.2027L11.4611 10.5963V6.96459L11.4611 3.33289L10.4505 2.6602C9.89475 2.29023 9.36301 1.96351 9.26891 1.93416C9.02234 1.85726 4.93523 1.85434 4.50697 1.93076ZM12.758 2.31308C12.7221 2.34891 12.7111 3.27835 12.7111 6.25839L12.7111 10.1568H14.5147C16.1381 10.1568 16.3254 10.1504 16.3897 10.0922C16.4579 10.0304 16.4611 9.85949 16.4611 6.23368C16.4611 2.86318 16.4543 2.43015 16.4003 2.35302L16.3395 2.2662H14.5722C13.2497 2.2662 12.7931 2.278 12.758 2.31308ZM14.7565 2.7156C14.9545 2.78413 15.1241 2.95054 15.1721 3.12336C15.2225 3.30502 15.2218 4.12055 15.171 4.30337C15.1171 4.49767 14.8743 4.71118 14.6677 4.74609C14.4582 4.78148 14.1755 4.64852 14.0465 4.45397C13.9598 4.32317 13.9566 4.29139 13.9684 3.68521C13.9794 3.11431 13.9886 3.04219 14.0628 2.94275C14.2278 2.72176 14.5087 2.62979 14.7565 2.7156Z" fill="#144A8A"/>
</svg>
