<svg width="18" height="18" viewBox="0 0 18 18" fill="none" xmlns="http://www.w3.org/2000/svg">
<path d="M9.33144 17.3327C9.7173 17.2682 10.0024 17.1276 10.7601 16.628C11.1802 16.351 11.5344 16.1244 11.5474 16.1244C11.5603 16.1244 11.6155 16.2006 11.6701 16.2937C11.8027 16.5201 12.0482 16.7359 12.3158 16.8613L12.5353 16.9643H14.5861H16.6369L16.8565 16.8546C17.277 16.6447 17.5848 16.2379 17.6715 15.7773C17.7252 15.4918 17.7255 8.08582 17.6717 7.80254C17.5796 7.31682 17.2925 6.93466 16.8602 6.72238L16.6369 6.61271L14.5397 6.60165L12.4425 6.5906L11.7142 5.15634C11.0327 3.81438 10.9697 3.6718 10.735 2.94083C10.4161 1.94776 10.307 1.72512 9.98036 1.40015C9.11437 0.538688 7.80222 0.528632 6.94506 1.37689C6.60949 1.70897 6.49326 1.92757 6.24855 2.68692C5.90888 3.74098 5.89115 4.15448 6.13002 5.45149C6.20412 5.85383 6.26498 6.22921 6.26527 6.28566C6.26633 6.49575 6.24855 6.49761 4.94379 6.42428C3.39716 6.33736 3.0753 6.33911 2.68805 6.43654C2.01524 6.60581 1.34936 7.03706 0.960282 7.55551C0.525311 8.1351 0.323072 8.72453 0.318762 9.42521C0.316418 9.80605 0.361299 10.1058 0.713556 12.0619C0.932146 13.2758 1.14709 14.392 1.19121 14.5424C1.63059 16.0401 2.95114 17.139 4.54601 17.334C4.93914 17.382 9.04282 17.381 9.33144 17.3327ZM4.50697 16.0692C3.50613 15.8907 2.65991 15.1335 2.3832 14.169C2.3179 13.9414 1.59763 9.95984 1.55684 9.60099C1.47719 8.90033 1.93715 8.10861 2.6126 7.78373C3.03159 7.5822 3.21008 7.5707 4.60066 7.65555C6.08472 7.74611 6.36136 7.73855 6.66562 7.59912C6.95078 7.46844 7.25761 7.16241 7.38714 6.8795C7.54667 6.53102 7.54578 6.26812 7.38205 5.38224C7.14946 4.12384 7.15357 3.95269 7.43782 3.05752C7.61829 2.48917 7.66352 2.39259 7.81503 2.25193C8.00869 2.07215 8.17925 2.00607 8.45329 2.00465C8.66189 2.00357 8.74006 2.02265 8.89142 2.11162C9.18606 2.28482 9.25396 2.41075 9.55271 3.33798C9.81951 4.16608 9.85119 4.23745 10.6443 5.79727L11.4611 7.40372V11.0354V14.6671L10.4505 15.3398C9.89475 15.7098 9.36301 16.0365 9.26891 16.0658C9.02234 16.1427 4.93523 16.1457 4.50697 16.0692ZM12.758 15.6869C12.7221 15.6511 12.7111 14.7216 12.7111 11.7416V7.84317H14.5147C16.1381 7.84317 16.3254 7.84963 16.3897 7.90782C16.4579 7.96961 16.4611 8.14051 16.4611 11.7663C16.4611 15.1368 16.4543 15.5699 16.4003 15.647L16.3395 15.7338H14.5722C13.2497 15.7338 12.7931 15.722 12.758 15.6869ZM14.7565 15.2844C14.9545 15.2159 15.1241 15.0495 15.1721 14.8766C15.2225 14.695 15.2218 13.8795 15.171 13.6966C15.1171 13.5023 14.8743 13.2888 14.6677 13.2539C14.4582 13.2185 14.1755 13.3515 14.0465 13.546C13.9598 13.6768 13.9566 13.7086 13.9684 14.3148C13.9794 14.8857 13.9886 14.9578 14.0628 15.0573C14.2278 15.2782 14.5087 15.3702 14.7565 15.2844Z" fill="#144A8A"/>
</svg>
